<?xml version="1.0" encoding="iso-8859-1"?>
<!-- Generator: Adobe Illustrator 19.0.0, SVG Export Plug-In . SVG Version: 6.00 Build 0)  -->
<svg version="1.1" id="Capa_1" xmlns="http://www.w3.org/2000/svg" xmlns:xlink="http://www.w3.org/1999/xlink" x="0px" y="0px"
	 viewBox="0 0 496.485 496.485" style="enable-background:new 0 0 496.485 496.485;" xml:space="preserve">
<path style="fill:#FFFFFF;" d="M290.133,55.079v417.358c110.158-5.43,198.594-96.97,198.594-208.679S400.291,60.509,290.133,55.079z
	"/>
<path style="fill:#193651;" d="M290.133,47.321c-2.327,0-3.879,0.776-5.43,2.327c-1.552,1.552-2.327,3.879-2.327,5.43v417.358
	c0,2.327,0.776,3.879,2.327,5.43c1.552,1.552,3.103,2.327,5.43,2.327l0,0c115.588-5.43,206.352-100.848,206.352-216.436
	S405.721,52.752,290.133,47.321z M297.891,463.903V63.612C401.067,72.145,480.97,159.03,480.97,263.758
	S401.067,454.594,297.891,463.903z"/>
<path style="fill:#2EA2DB;" d="M329.697,96.194c-13.188-3.879-26.376-6.206-39.564-6.982v349.091
	c71.37-3.879,136.533-52.751,157.479-124.897C474.764,220.315,422.012,123.345,329.697,96.194z"/>
<g>
	<path style="fill:#E1E6E9;" d="M349.091,238.158l-10.085-13.964l7.758-25.6c0,0-6.206-3.103,0-13.188c0,0-6.206-10.861,5.43-24.824
		c0,0-1.552-27.927-20.17-24.048l3.103,7.758l-5.43,9.309l7.758,2.327l-8.533,9.309l3.879,5.43c0,0-28.703-6.982-36.461,17.842
		c0,0,6.982,13.188-6.206,9.309v56.63c0,1.552,0,3.879,0,6.206v6.982l7.758,2.327c0,0,0.776,17.067,10.861,13.188
		c0,0,6.206-3.879,10.085,8.533c0,0,17.067,10.085,24.824-15.515C343.661,276.17,371.588,266.861,349.091,238.158z"/>
	<path style="fill:#E1E6E9;" d="M398.739,332.024c0,0,0,0-3.879-20.17c-3.879-20.17-20.945-2.327-20.17,6.982
		c0.776,10.085-10.861,20.945-29.479,10.085c-18.618-10.861-12.412,0-36.461,17.842c-8.533,6.206-13.964,7.758-18.618,6.982v23.273
		c1.552,0,1.552,1.552,0,3.103v22.497c7.758,0,17.067,0.776,24.824,3.103c13.964,4.655,15.515,15.515,13.964,25.6
		c19.394-5.43,37.236-13.964,53.527-25.6c5.43-8.533,11.636-19.394,20.945-35.685C418.909,344.436,398.739,332.024,398.739,332.024z
		"/>
</g>
<path style="fill:#FDBF5E;" d="M237.382,435.976c-28.703,0-52.752,23.273-52.752,52.752V60.509
	c0-28.703,23.273-52.752,52.752-52.752c28.703,0,52.752,23.273,52.752,52.752v428.218
	C290.133,460.024,266.861,435.976,237.382,435.976z"/>
<path style="fill:#193651;" d="M237.382,0c-33.358,0-60.509,27.152-60.509,60.509v428.218c0,4.655,3.103,7.758,7.758,7.758
	c4.655,0,7.758-3.103,7.758-7.758c0-24.824,20.17-44.994,44.994-44.994s44.994,20.17,44.994,44.994c0,4.655,3.103,7.758,7.758,7.758
	s7.758-3.103,7.758-7.758V60.509C297.891,27.152,270.739,0,237.382,0z M282.376,448.388c-10.861-12.412-27.152-20.17-44.994-20.17
	s-33.358,7.758-44.994,20.17V60.509c0-24.824,20.17-44.994,44.994-44.994s44.994,20.17,44.994,44.994V448.388z"/>
<path style="fill:#FFFFFF;" d="M237.382,35.685c-13.188,0-24.048,10.861-24.048,24.048v351.418
	c7.758-2.327,15.515-3.879,24.048-3.879c8.533,0,16.291,1.552,24.049,3.879V60.509C261.43,46.545,250.57,35.685,237.382,35.685z"/>
<g>
	<rect x="229.624" y="76.024" style="fill:#193651;" width="15.515" height="15.515"/>
	<rect x="229.624" y="187.733" style="fill:#193651;" width="15.515" height="15.515"/>
</g>
<g>
	<rect x="229.624" y="300.218" style="fill:#193651;" width="15.515" height="15.515"/>
	<rect x="229.624" y="131.879" style="fill:#193651;" width="15.515" height="15.515"/>
</g>
<g>
	<rect x="229.624" y="244.364" style="fill:#193651;" width="15.515" height="15.515"/>
	<rect x="229.624" y="356.073" style="fill:#193651;" width="15.515" height="15.515"/>
</g>
<rect x="96.504" y="62.518" style="fill:#F16051;" width="88.436" height="425.891"/>
<path style="fill:#193651;" d="M185.406,496.485H96.97c-4.655,0-7.758-3.103-7.758-7.758V62.836c0-4.655,3.103-7.758,7.758-7.758
	h88.436c4.655,0,7.758,3.103,7.758,7.758v425.891C193.164,493.382,189.285,496.485,185.406,496.485z M104.727,480.97h72.921V70.594
	h-72.921V480.97z"/>
<g>
	<rect x="105.363" y="114.82" style="fill:#FFFFFF;" width="71.37" height="8.533"/>
	<rect x="105.169" y="134.02" style="fill:#FFFFFF;" width="71.37" height="20.945"/>
	<rect x="105.371" y="428.195" style="fill:#FFFFFF;" width="71.37" height="8.533"/>
	<rect x="105.193" y="396.567" style="fill:#FFFFFF;" width="71.37" height="20.945"/>
</g>
<rect x="7.215" y="62.596" style="fill:#2EA2DB;" width="88.436" height="425.891"/>
<path style="fill:#193651;" d="M96.194,496.485H7.758c-4.655,0-7.758-3.103-7.758-7.758V62.836c0-4.655,3.103-7.758,7.758-7.758
	h88.436c4.655,0,7.758,3.103,7.758,7.758v425.891C103.952,493.382,100.073,496.485,96.194,496.485z M15.515,480.97h72.921V70.594
	H15.515V480.97z"/>
<g>
	<rect x="15.903" y="414.332" style="fill:#FFFFFF;" width="71.37" height="22.497"/>
	<rect x="15.981" y="368.485" style="fill:#FFFFFF;" width="71.37" height="22.497"/>
	<circle style="fill:#FFFFFF;" cx="51.976" cy="124.121" r="16.291"/>
</g>
<g>
</g>
<g>
</g>
<g>
</g>
<g>
</g>
<g>
</g>
<g>
</g>
<g>
</g>
<g>
</g>
<g>
</g>
<g>
</g>
<g>
</g>
<g>
</g>
<g>
</g>
<g>
</g>
<g>
</g>
</svg>
