<svg id="Capa_1" enable-background="new 0 0 512 512" height="512" viewBox="0 0 512 512" width="512" xmlns="http://www.w3.org/2000/svg"><g><g><g><path d="m489.5 49.34h-467c-8.284 0-15 6.716-15 15v42.442l5.868 1.085h484.863l6.269-1.085v-42.442c0-8.284-6.716-15-15-15z" fill="#26a6fe"/></g><g><path d="m87.383 49.341h-64.883c-8.284 0-15 6.716-15 15v42.442h79.883z" fill="#60b7ff"/></g><g><path d="m494.5 462.66h-477c-5.523 0-10-4.477-10-10v-345.877h497v345.877c0 5.523-4.477 10-10 10z" fill="#eaf6ff"/></g><g><path d="m40 452.66v-345.877h-32.5v345.877c0 5.523 4.477 10 10 10h32.5c-5.523 0-10-4.477-10-10z" fill="#d8ecfe"/></g></g><g><path d="m453.863 201.759h-395.726c-2.761 0-5-2.239-5-5v-44.241c0-2.761 2.239-5 5-5h395.726c2.761 0 5 2.239 5 5v44.241c0 2.762-2.239 5-5 5z" fill="#fff"/></g><g><path d="m58.137 147.518c-2.761 0-5 2.239-5 5v44.241c0 2.761 2.239 5 5 5h100.229v-54.241z" fill="#fe7701"/></g><g><path d="m87 196.759v-44.241c0-2.761 2.239-5 5-5h-33.863c-2.761 0-5 2.239-5 5v44.241c0 2.761 2.239 5 5 5h33.863c-2.761 0-5-2.238-5-5z" fill="#f46700"/></g><g><g><path d="m453.863 423.425h-106.077c-2.761 0-5-2.239-5-5v-175.506c0-2.761 2.239-5 5-5h106.077c2.761 0 5 2.239 5 5v175.506c0 2.762-2.239 5-5 5z" fill="#fff"/></g><g><path d="m367.923 418.425v-175.506c0-2.761 2.239-5 5-5h-25.137c-2.761 0-5 2.239-5 5v175.506c0 2.761 2.239 5 5 5h25.137c-2.761 0-5-2.238-5-5z" fill="#fff3de"/></g><g><path d="m342.786 418.425c0 2.761 2.239 5 5 5h106.077c2.761 0 5-2.239 5-5v-42.732h-116.077z" fill="#0ed290"/></g><g><path d="m367.923 418.425v-42.732h-25.137v42.732c0 2.761 2.239 5 5 5h25.137c-2.761 0-5-2.238-5-5z" fill="#00c285"/></g><g><path d="m403.443 268.838 6.923 14.027c.425.862 1.247 1.459 2.199 1.597l15.479 2.249c2.395.348 3.351 3.291 1.618 4.981l-11.201 10.918c-.688.671-1.002 1.637-.84 2.585l2.644 15.417c.409 2.385-2.095 4.204-4.237 3.078l-13.845-7.279c-.851-.447-1.867-.447-2.718 0l-13.845 7.279c-2.142 1.126-4.646-.693-4.237-3.078l2.644-15.417c.162-.947-.152-1.914-.84-2.585l-11.201-10.918c-1.733-1.689-.777-4.633 1.618-4.981l15.479-2.249c.951-.138 1.773-.736 2.199-1.597l6.923-14.027c1.072-2.171 4.167-2.171 5.238 0z" fill="#fed402"/></g></g><g><g><g><circle cx="99.5" cy="366.672" fill="#fed402" r="50.5"/></g></g><g><path d="m81 366.672c0-22.296 14.455-41.203 34.5-47.897-5.03-1.68-10.406-2.603-16-2.603-27.89 0-50.5 22.61-50.5 50.5s22.61 50.5 50.5 50.5c5.594 0 10.97-.923 16-2.603-20.045-6.693-34.5-25.601-34.5-47.897z" fill="#fac600"/></g></g><g><path d="m489.5 41.84h-333.5c-4.143 0-7.5 3.358-7.5 7.5s3.357 7.5 7.5 7.5h333.5c4.136 0 7.5 3.365 7.5 7.5v34.942h-402.116v-42.442h26.116c4.143 0 7.5-3.358 7.5-7.5s-3.357-7.5-7.5-7.5h-98.5c-12.406 0-22.5 10.093-22.5 22.5v388.32c0 9.649 7.851 17.5 17.5 17.5h477c9.649 0 17.5-7.851 17.5-17.5v-388.32c0-12.407-10.094-22.5-22.5-22.5zm-474.5 22.501c0-4.136 3.364-7.5 7.5-7.5h57.384v42.442h-64.884zm482 388.319c0 1.378-1.121 2.5-2.5 2.5h-477c-1.379 0-2.5-1.122-2.5-2.5v-338.378h482z"/><path d="m58.137 209.259h395.727c6.893 0 12.5-5.607 12.5-12.5v-44.241c0-6.893-5.607-12.5-12.5-12.5h-395.727c-6.893 0-12.5 5.607-12.5 12.5v44.241c0 6.893 5.607 12.5 12.5 12.5zm107.728-54.241h285.498v39.241h-285.498zm-105.228 0h90.229v39.241h-90.229z"/><path d="m453.863 230.419h-106.077c-6.893 0-12.5 5.607-12.5 12.5v175.506c0 6.893 5.607 12.5 12.5 12.5h106.077c6.893 0 12.5-5.607 12.5-12.5v-92.425c0-4.142-3.357-7.5-7.5-7.5s-7.5 3.358-7.5 7.5v42.192h-101.077v-122.773h101.077v45.581c0 4.142 3.357 7.5 7.5 7.5s7.5-3.358 7.5-7.5v-48.081c0-6.892-5.607-12.5-12.5-12.5zm-2.5 152.774v32.732h-101.077v-32.732z"/><path d="m437.533 286.38c-1.234-3.799-4.457-6.516-8.411-7.091l-13.097-1.903-5.856-11.867c-1.769-3.583-5.349-5.809-9.344-5.809-3.996 0-7.576 2.226-9.345 5.809l-5.857 11.868-13.097 1.903c-3.954.575-7.177 3.292-8.411 7.093-1.234 3.8-.224 7.893 2.637 10.681l9.478 9.237-2.237 13.043c-.676 3.938.912 7.843 4.145 10.191 1.827 1.327 3.964 2.001 6.115 2.001 1.656 0 3.321-.399 4.859-1.208l11.713-6.159 11.714 6.159c3.535 1.859 7.741 1.555 10.975-.793 3.232-2.348 4.82-6.253 4.145-10.191l-2.239-13.044 9.479-9.238c2.86-2.79 3.87-6.883 2.634-10.682zm-24.306 10.858c-2.456 2.394-3.576 5.84-2.997 9.224l1.075 6.27-5.631-2.96c-1.519-.798-3.184-1.198-4.85-1.198-1.665 0-3.331.399-4.849 1.197l-5.631 2.96 1.076-6.273c.578-3.381-.542-6.828-2.997-9.22l-4.556-4.44 6.295-.915c3.396-.493 6.33-2.625 7.846-5.7l2.815-5.705 2.817 5.708c1.519 3.075 4.451 5.205 7.845 5.697l6.295.915z"/><path d="m375.874 343.241c-4.143 0-7.5 3.358-7.5 7.5s3.357 7.5 7.5 7.5h49.901c4.143 0 7.5-3.358 7.5-7.5s-3.357-7.5-7.5-7.5z"/><circle cx="459.5" cy="78" r="7.5"/><circle cx="436.5" cy="78" r="7.5"/><circle cx="413.5" cy="78" r="7.5"/><path d="m53.137 251.672h243.863c4.143 0 7.5-3.358 7.5-7.5s-3.357-7.5-7.5-7.5h-243.863c-4.143 0-7.5 3.358-7.5 7.5s3.357 7.5 7.5 7.5z"/><path d="m53.137 284.217h243.863c4.143 0 7.5-3.358 7.5-7.5s-3.357-7.5-7.5-7.5h-243.863c-4.143 0-7.5 3.358-7.5 7.5s3.357 7.5 7.5 7.5z"/><path d="m297 328.416h-113.936c-4.143 0-7.5 3.358-7.5 7.5s3.357 7.5 7.5 7.5h113.936c4.143 0 7.5-3.358 7.5-7.5s-3.357-7.5-7.5-7.5z"/><path d="m297 360.961h-113.936c-4.143 0-7.5 3.358-7.5 7.5s3.357 7.5 7.5 7.5h113.936c4.143 0 7.5-3.358 7.5-7.5s-3.357-7.5-7.5-7.5z"/><path d="m243.213 393.506h-60.148c-4.143 0-7.5 3.358-7.5 7.5s3.357 7.5 7.5 7.5h60.148c4.143 0 7.5-3.358 7.5-7.5s-3.358-7.5-7.5-7.5z"/><path d="m99.5 424.672c24.269 0 46.168-15.311 54.492-38.099 1.421-3.891-.581-8.197-4.472-9.618-3.894-1.421-8.196.581-9.618 4.472-6.171 16.894-22.408 28.245-40.402 28.245-23.71 0-43-19.29-43-43s19.29-43 43-43c17.85 0 34.041 11.234 40.289 27.954 1.451 3.88 5.773 5.851 9.65 4.4 3.881-1.45 5.851-5.771 4.4-9.651-8.427-22.551-30.265-37.703-54.34-37.703-31.981 0-58 26.019-58 58s26.02 58 58.001 58z"/><path d="m429 167.138h-39c-4.143 0-7.5 3.358-7.5 7.5s3.357 7.5 7.5 7.5h39c4.143 0 7.5-3.358 7.5-7.5s-3.357-7.5-7.5-7.5z"/></g></g></svg>